# This file uses centimeters as units for non-parametric coordinates.

mtllib Wall_HP.mtl
g default
v -0.991705 0.008295 -0.028320
v -0.971680 0.000000 -0.028320
v -0.971680 0.008295 -0.008295
v -0.971680 0.028320 0.000000
v -0.991705 0.028320 -0.008295
v -1.000000 0.028320 -0.028320
v -0.500000 0.000000 -0.028320
v -0.479975 0.000000 -0.028320
v -0.479976 0.008295 -0.008295
v -0.479975 0.028320 0.000000
v -0.500000 0.028320 0.000000
v -0.520025 0.028320 0.000000
v -0.520025 0.008295 -0.008295
v -0.520025 0.000000 -0.028320
v -0.008295 0.008295 -0.028310
v 0.000000 0.028320 -0.028320
v -0.008295 0.028320 -0.008295
v -0.028320 0.028320 0.000000
v -0.028336 0.008295 -0.008295
v -0.028320 0.000000 -0.028320
v -0.991705 0.991705 -0.028322
v -1.000000 0.971680 -0.028320
v -0.991705 0.971680 -0.008295
v -0.971680 0.971680 0.000000
v -0.971680 0.991705 -0.008295
v -0.971680 1.000000 -0.028320
v -0.501650 0.996057 -0.028068
v -0.521523 1.000000 -0.028122
v -0.520780 0.991708 -0.008230
v -0.520034 0.971667 0.000000
v -0.499696 0.962473 0.000000
v -0.479748 0.939243 0.000000
v -0.482534 0.971517 -0.008130
v -0.484827 0.984827 -0.028035
v -0.004095 0.498304 -0.029134
v -0.015757 0.515757 -0.029115
v -0.021471 0.508278 -0.008154
v -0.027055 0.488793 0.000000
v -0.009330 0.478963 -0.008153
v 0.000000 0.477716 -0.029115
v -0.991705 0.971682 -2.991705
v -1.000000 0.971680 -2.971680
v -0.991705 0.991705 -2.971679
v -0.971680 1.000000 -2.971680
v -0.971680 0.991705 -2.991705
v -0.971680 0.971680 -3.000000
v -0.499736 0.962379 -3.000000
v -0.520133 0.971527 -3.000000
v -0.520868 0.991667 -2.991741
v -0.521599 1.000000 -2.971779
v -0.501670 0.996057 -2.971879
v -0.484827 0.984827 -2.971965
v -0.482534 0.971517 -2.991869
v -0.479748 0.939243 -3.000000
v -0.009345 0.479138 -2.991984
v -0.027055 0.488793 -3.000000
v -0.021357 0.508144 -2.991983
v -0.015542 0.515542 -2.971282
v -0.004039 0.498327 -2.971272
v 0.000000 0.478020 -2.971282
v -0.991705 0.008295 -2.971680
v -1.000000 0.028320 -2.971680
v -0.991705 0.028320 -2.991705
v -0.971680 0.028320 -3.000000
v -0.971680 0.008295 -2.991705
v -0.971680 0.000000 -2.971680
v -0.500000 0.000000 -2.971680
v -0.520025 0.000000 -2.971680
v -0.520025 0.008295 -2.991705
v -0.520025 0.028320 -3.000000
v -0.500000 0.028320 -3.000000
v -0.479975 0.028320 -3.000000
v -0.479976 0.008295 -2.991705
v -0.479975 0.000000 -2.971680
v -0.008295 0.008295 -2.971685
v -0.028320 0.000000 -2.971680
v -0.028336 0.008295 -2.991705
v -0.028320 0.028320 -3.000000
v -0.008295 0.028320 -2.991705
v 0.000000 0.028320 -2.971680
v -0.988025 0.011975 -0.011975
v -0.500001 0.008295 -0.008295
v -0.011969 0.011976 -0.011975
v -0.988025 0.988025 -0.011976
v -0.500669 0.986266 -0.008201
v -0.009595 0.496026 -0.011914
v -0.988025 0.988026 -2.988024
v -0.500700 0.986239 -2.991781
v -0.009560 0.496040 -2.988278
v -0.988025 0.011975 -2.988025
v -0.500001 0.008295 -2.991705
v -0.011968 0.011976 -2.988023
vt 0.392248 0.021056
vt 0.079473 0.050268
vt 0.310127 0.021056
vt 0.976876 0.021056
vt 0.164605 0.050241
vt 0.894755 0.021056
vt 0.884457 0.021056
vt 0.079473 0.213876
vt 0.157679 0.213874
vt 0.164644 0.208223
vt 0.242784 0.129484
vt 0.802747 0.021181
vt 0.402546 0.484321
vt 0.584367 0.484321
vt 0.666201 0.484337
vt 0.674030 0.484366
vt 0.794699 0.484258
vt 0.802692 0.484258
vt 0.884457 0.484321
vt 0.310127 0.484321
vt 0.081306 0.253721
vt 0.081306 0.329856
vt 0.894755 0.484321
vt 0.081298 0.336604
vt 0.081295 0.412669
vt 0.157680 0.050268
vt 0.242566 0.050230
vt 0.584367 0.021056
vt 0.666215 0.021024
vt 0.674030 0.021011
vt 0.794644 0.021181
vt 0.240397 0.253721
vt 0.240371 0.329837
vt 0.234919 0.336642
vt 0.158781 0.412882
vt 0.392248 0.484321
vt 0.976875 0.484321
vt 0.402546 0.021056
vt 0.574069 0.021056
vt 0.574069 0.484321
vt 0.397397 0.021043
vt 0.077607 0.045357
vt 0.394207 0.016599
vt 0.400587 0.016599
vt 0.074569 0.048400
vt 0.980517 0.020025
vt 0.306486 0.020025
vt 0.164683 0.045357
vt 0.976792 0.016599
vt 0.161143 0.050234
vt 0.310210 0.016599
vt 0.157601 0.045357
vt 0.889606 0.021042
vt 0.247454 0.048398
vt 0.886393 0.016599
vt 0.892800 0.016599
vt 0.244422 0.045357
vt 0.579215 0.021044
vt 0.074569 0.215745
vt 0.576028 0.016599
vt 0.582408 0.016599
vt 0.077607 0.218788
vt 0.670120 0.021012
vt 0.157458 0.218788
vt 0.666254 0.016599
vt 0.161188 0.212323
vt 0.674456 0.016599
vt 0.164053 0.215846
vt 0.798696 0.021172
vt 0.245283 0.133589
vt 0.795461 0.016599
vt 0.801969 0.016599
vt 0.247454 0.128292
vt 0.576028 0.488778
vt 0.242214 0.248948
vt 0.579215 0.484333
vt 0.245173 0.251905
vt 0.582408 0.488778
vt 0.238897 0.333269
vt 0.666244 0.488778
vt 0.245173 0.329630
vt 0.670113 0.484356
vt 0.242327 0.336066
vt 0.674458 0.488778
vt 0.157661 0.417438
vt 0.801937 0.488778
vt 0.795492 0.488778
vt 0.162767 0.415340
vt 0.798695 0.484268
vt 0.397397 0.484334
vt 0.079489 0.248948
vt 0.400587 0.488778
vt 0.394207 0.488778
vt 0.076530 0.251905
vt 0.306486 0.485352
vt 0.980517 0.485352
vt 0.076530 0.329779
vt 0.310210 0.488778
vt 0.081280 0.333230
vt 0.976793 0.488778
vt 0.076530 0.336681
vt 0.889606 0.484334
vt 0.076530 0.414480
vt 0.892800 0.488778
vt 0.886393 0.488778
vt 0.079503 0.417438
vt 0.397397 0.016599
vt 0.074569 0.045357
vt 0.161148 0.045357
vt 0.306486 0.016599
vt 0.980517 0.016599
vt 0.889606 0.016599
vt 0.247454 0.045357
vt 0.579218 0.016599
vt 0.074569 0.218788
vt 0.161148 0.218788
vt 0.670129 0.016599
vt 0.798696 0.016599
vt 0.247454 0.131390
vt 0.579218 0.488778
vt 0.245173 0.248948
vt 0.670129 0.488778
vt 0.245173 0.333231
vt 0.160661 0.417438
vt 0.798695 0.488778
vt 0.397397 0.488778
vt 0.076530 0.248948
vt 0.076530 0.333231
vt 0.980517 0.488778
vt 0.306486 0.488778
vt 0.889606 0.488778
vt 0.076530 0.417438
vn -0.017543 -0.999842 0.002758
vn -0.382490 -0.923958 0.001731
vn -0.382490 -0.923958 -0.001731
vn -0.017543 -0.999842 -0.002758
vn -0.923958 -0.382490 0.001731
vn -0.999959 -0.008590 0.002779
vn -0.999959 -0.008590 -0.002779
vn -0.923958 -0.382490 -0.001731
vn -0.017460 -0.008484 0.999812
vn -0.010978 -0.381435 0.924331
vn 0.000000 -0.382683 0.923880
vn 0.000000 -0.008609 0.999963
vn -0.010978 -0.924330 0.381435
vn 0.000000 -0.999996 0.002799
vn 0.000000 -0.923880 0.382683
vn -0.924113 -0.005345 0.382081
vn -0.924113 0.005346 0.382081
vn -0.999959 0.008589 0.002779
vn -0.382081 -0.005345 0.924113
vn -0.017462 0.008445 0.999812
vn -0.382082 0.005346 0.924113
vn 0.000000 -0.999996 0.002799
vn 0.000000 -0.999996 0.002799
vn -0.000000 -0.999996 -0.002799
vn 0.000000 -0.999996 -0.002799
vn -0.000000 -0.999996 -0.002799
vn -0.000000 -0.011573 0.999933
vn -0.000000 -0.382683 0.923880
vn 0.010968 -0.381437 0.924330
vn 0.011708 -0.011729 0.999863
vn 0.000000 -0.923879 0.382684
vn 0.017548 -0.999842 0.002757
vn 0.010964 -0.924328 0.381441
vn 0.000000 -0.008698 0.999962
vn 0.008339 0.010691 0.999908
vn 0.000168 0.008586 0.999963
vn 0.028285 0.028288 0.999200
vn 0.999840 -0.017636 0.002934
vn 0.923959 -0.382488 0.001731
vn 0.923959 -0.382489 -0.001731
vn 0.999840 -0.017627 -0.002935
vn 0.382488 -0.923959 0.001734
vn 0.017546 -0.999842 -0.002757
vn 0.382489 -0.923959 -0.001734
vn 0.397517 -0.011704 0.917520
vn 0.401623 0.004167 0.915796
vn 0.011345 0.005617 0.999920
vn 0.919320 -0.009393 0.393400
vn 0.999958 0.008622 0.003032
vn 0.919109 0.006354 0.393953
vn -0.923958 0.382490 0.001731
vn -0.923958 0.382490 -0.001731
vn -0.999959 0.008590 -0.002779
vn -0.382489 0.923958 0.001731
vn -0.017595 0.999841 0.002758
vn -0.017597 0.999841 -0.002765
vn -0.382489 0.923958 -0.001731
vn -0.011147 0.923919 0.382426
vn 0.009987 0.922960 0.384768
vn 0.008409 0.999961 0.002860
vn -0.011051 0.380066 0.924893
vn 0.004679 0.380312 0.924846
vn 0.382126 0.924106 0.002878
vn 0.382395 0.923995 -0.002898
vn 0.008420 0.999960 -0.002865
vn 0.702990 0.711197 0.002058
vn 0.702997 0.711190 -0.002059
vn 0.651593 0.652986 0.386052
vn 0.655899 0.648989 0.385499
vn 0.711283 0.702899 0.002932
vn 0.275913 0.276188 0.920648
vn 0.278383 0.274031 0.920548
vn 0.923877 0.382682 0.002249
vn 0.923877 0.382682 -0.002190
vn 0.711286 0.702897 -0.002928
vn 0.999958 0.008629 -0.003028
vn -0.924114 0.005346 -0.382079
vn -0.924114 -0.005345 -0.382080
vn -0.382071 0.005346 -0.924117
vn -0.017465 0.008462 -0.999812
vn -0.017463 -0.008485 -0.999812
vn -0.382071 -0.005345 -0.924117
vn -0.010924 0.379851 -0.924983
vn 0.004763 0.380076 -0.924943
vn 0.000169 0.008600 -0.999963
vn -0.011034 0.923824 -0.382658
vn 0.010037 0.922852 -0.385025
vn 0.008284 0.010719 -0.999908
vn -0.000006 -0.008688 -0.999962
vn -0.000001 -0.008610 -0.999963
vn 0.028044 0.028062 -0.999213
vn -0.000000 -0.011572 -0.999933
vn 0.273937 0.274541 -0.921730
vn 0.276308 0.272160 -0.921728
vn 0.011296 0.005593 -0.999921
vn 0.650742 0.652406 -0.388462
vn 0.654973 0.648428 -0.388010
vn 0.398822 0.003964 -0.917020
vn 0.394903 -0.011850 -0.918647
vn 0.011614 -0.011732 -0.999864
vn 0.918021 0.005982 -0.396486
vn 0.918315 -0.009656 -0.395733
vn -0.010978 -0.924331 -0.381434
vn -0.000000 -0.923880 -0.382682
vn -0.010978 -0.381430 -0.924332
vn 0.000000 -0.382679 -0.923882
vn 0.000000 -0.923880 -0.382683
vn 0.010966 -0.924329 -0.381440
vn -0.000000 -0.382679 -0.923882
vn 0.010970 -0.381435 -0.924331
vn -0.887918 -0.325271 0.325269
vn -0.325269 -0.887919 0.325269
vn -0.325270 -0.325267 0.887919
vn 0.000000 -0.923880 0.382684
vn 0.000000 -0.382684 0.923879
vn 0.325018 -0.887945 0.325449
vn 0.888019 -0.325049 0.325217
vn 0.325083 -0.325344 0.887959
vn -0.325298 0.887913 0.325256
vn -0.887915 0.325295 0.325254
vn -0.325291 0.325291 0.887903
vn 0.415617 0.818308 0.397033
vn 0.183254 0.329760 0.926108
vn 0.858033 0.355387 0.370783
vn 0.492693 0.204064 0.845938
vn -0.325258 0.325290 -0.887916
vn -0.887917 0.325299 -0.325245
vn -0.325268 0.887928 -0.325246
vn 0.181729 0.329545 -0.926485
vn 0.413635 0.818909 -0.397862
vn 0.856045 0.354564 -0.376126
vn 0.486251 0.201401 -0.850293
vn -0.325269 -0.887919 -0.325268
vn -0.887917 -0.325272 -0.325271
vn -0.325270 -0.325268 -0.887919
vn -0.000002 -0.923880 -0.382682
vn 0.000001 -0.382679 -0.923881
vn 0.888007 -0.325107 -0.325192
vn 0.325077 -0.887933 -0.325422
vn 0.325130 -0.325389 -0.887926
s 1
g Wall_HP
usemtl initialShadingGroup
f 2/1/1 1/41/2 61/90/3 66/36/4
s 2
f 1/41/5 6/38/6 62/13/7 61/90/8
s 3
f 4/2/9 3/42/10 13/52/11 12/26/12
s 1
f 3/43/13 2/1/1 14/3/14 13/51/15
s 2
f 6/38/6 5/44/16 23/60/17 22/39/18
s 3
f 5/45/19 4/2/9 24/8/20 23/59/21
s 1
f 8/4/22 7/46/23 67/96/24 74/37/25
f 7/47/23 14/3/14 68/20/26 67/95/24
s 3
f 10/5/27 9/48/28 19/57/29 18/27/30
s 1
f 9/49/31 8/4/22 20/6/32 19/56/33
s 3
f 12/26/12 11/50/34 31/66/35 30/9/36
f 11/50/34 10/5/27 32/10/37 31/66/35
s 6
f 16/7/38 15/53/39 75/102/40 80/19/41
s 1
f 15/53/42 20/6/32 76/23/43 75/102/44
s 3
f 18/27/30 17/54/45 39/73/46 38/11/47
s 6
f 17/55/48 16/7/38 40/12/49 39/72/50
s 2
f 22/39/18 21/58/51 43/76/52 42/40/53
s 6
f 21/58/54 26/28/55 44/14/56 43/76/57
f 26/28/55 25/61/58 29/65/59 28/29/60
s 3
f 25/62/61 24/8/20 30/9/36 29/64/62
s 6
f 28/29/60 27/63/63 51/82/64 50/15/65
f 27/63/63 34/30/66 52/16/67 51/82/64
f 34/30/66 33/67/68 37/71/69 36/31/70
s 3
f 33/68/71 32/10/37 38/11/47 37/70/72
s 6
f 36/31/70 35/69/73 59/89/74 58/17/75
f 35/69/73 40/12/49 60/18/76 59/89/74
s 2
f 42/40/53 41/74/77 63/92/78 62/13/7
s 8
f 41/75/79 46/32/80 64/21/81 63/91/82
f 46/32/80 45/77/83 49/81/84 48/33/85
s 6
f 45/78/86 44/14/56 50/15/65 49/80/87
s 8
f 48/33/85 47/79/88 71/99/89 70/22/90
f 47/79/88 54/34/91 72/24/92 71/99/89
f 54/34/91 53/83/93 57/88/94 56/35/95
s 6
f 53/84/96 52/16/67 58/17/75 57/87/97
s 8
f 56/35/95 55/85/98 79/106/99 78/25/100
s 6
f 55/86/101 60/18/76 80/19/41 79/105/102
s 1
f 66/36/4 65/93/103 69/98/104 68/20/26
s 8
f 65/94/105 64/21/81 70/22/90 69/97/106
s 1
f 74/37/25 73/100/107 77/104/108 76/23/43
s 8
f 73/101/109 72/24/92 78/25/100 77/103/110
s 3
f 4/2/9 12/26/12 30/9/36 24/8/20
f 10/5/27 18/27/30 38/11/47 32/10/37
s 6
f 26/28/55 28/29/60 50/15/65 44/14/56
f 34/30/66 36/31/70 58/17/75 52/16/67
s 8
f 46/32/80 48/33/85 70/22/90 64/21/81
f 54/34/91 56/35/95 78/25/100 72/24/92
s 1
f 66/36/4 68/20/26 14/3/14 2/1/1
f 74/37/25 76/23/43 20/6/32 8/4/22
s 6
f 16/7/38 80/19/41 60/18/76 40/12/49
s 2
f 62/13/7 6/38/6 22/39/18 42/40/53
f 5/44/16 6/38/6 1/41/5 81/107/111
s 1
f 1/41/2 2/1/1 3/43/13 81/107/112
s 3
f 3/42/10 4/2/9 5/45/19 81/108/113
s 1
f 13/51/15 14/3/14 7/47/23 82/110/114
f 7/46/23 8/4/22 9/49/31 82/111/114
s 3
f 9/48/28 10/5/27 11/50/34 82/109/115
f 11/50/34 12/26/12 13/52/11 82/109/115
s 1
f 19/56/33 20/6/32 15/53/42 83/112/116
s 6
f 15/53/39 16/7/38 17/55/48 83/112/117
s 3
f 17/54/45 18/27/30 19/57/29 83/113/118
s 6
f 25/61/58 26/28/55 21/58/54 84/114/119
s 2
f 21/58/51 22/39/18 23/60/17 84/114/120
s 3
f 23/59/21 24/8/20 25/62/61 84/115/121
s 6
f 33/67/68 34/30/66 27/63/63 85/117/122
f 27/63/63 28/29/60 29/65/59 85/117/122
s 3
f 29/64/62 30/9/36 31/66/35 85/116/123
f 31/66/35 32/10/37 33/68/71 85/116/123
s 6
f 39/72/50 40/12/49 35/69/73 86/118/124
f 35/69/73 36/31/70 37/71/69 86/118/124
s 3
f 37/70/72 38/11/47 39/73/46 86/119/125
s 8
f 45/77/83 46/32/80 41/75/79 87/121/126
s 2
f 41/74/77 42/40/53 43/76/52 87/120/127
s 6
f 43/76/57 44/14/56 45/78/86 87/120/128
s 8
f 53/83/93 54/34/91 47/79/88 88/123/129
f 47/79/88 48/33/85 49/81/84 88/123/129
s 6
f 49/80/87 50/15/65 51/82/64 88/122/130
f 51/82/64 52/16/67 53/84/96 88/122/130
f 59/89/74 60/18/76 55/86/101 89/125/131
s 8
f 55/85/98 56/35/95 57/88/94 89/124/132
s 6
f 57/87/97 58/17/75 59/89/74 89/125/131
s 1
f 65/93/103 66/36/4 61/90/3 90/126/133
s 2
f 61/90/8 62/13/7 63/92/78 90/126/134
s 8
f 63/91/82 64/21/81 65/94/105 90/127/135
s 1
f 73/100/107 74/37/25 67/96/24 91/129/136
f 67/95/24 68/20/26 69/98/104 91/130/136
s 8
f 69/97/106 70/22/90 71/99/89 91/128/137
f 71/99/89 72/24/92 73/101/109 91/128/137
s 6
f 79/105/102 80/19/41 75/102/40 92/131/138
s 1
f 75/102/44 76/23/43 77/104/108 92/131/139
s 8
f 77/103/110 78/25/100 79/106/99 92/132/140
